<svg xmlns="http://www.w3.org/2000/svg" width="30" height="19" viewBox="0 0 30 19">
  <defs>
    <style>
      .cls-1 {
        fill: #fff;
        fill-rule: evenodd;
      }
    </style>
  </defs>
  <path id="Rounded_Rectangle_1_copy_2" data-name="Rounded Rectangle 1 copy 2" class="cls-1" d="M949.087,727.5l11.895,7.779a1.229,1.229,0,0,1,0,2.222,3.366,3.366,0,0,1-3.4,0l-11.894-7.778a1.23,1.23,0,0,1,0-2.223A3.369,3.369,0,0,1,949.087,727.5Zm21.76-.046-11.974,7.831a1.237,1.237,0,0,0,0,2.237,3.388,3.388,0,0,0,3.421,0l11.975-7.83a1.238,1.238,0,0,0,0-2.238A3.4,3.4,0,0,0,970.847,727.453ZM952,719.363l8.723,5.657a0.891,0.891,0,0,1,0,1.616,2.483,2.483,0,0,1-2.492,0l-8.723-5.657a0.891,0.891,0,0,1,0-1.616A2.488,2.488,0,0,1,952,719.363Zm15.958-.033-8.781,5.694a0.9,0.9,0,0,0,0,1.628,2.5,2.5,0,0,0,2.508,0l8.782-5.7a0.9,0.9,0,0,0,0-1.627A2.5,2.5,0,0,0,967.955,719.33Z" transform="translate(-945 -719)"/>
</svg>
